<mxfile host="app.diagrams.net" modified="2023-04-01T04:22:33.042Z" agent="Mozilla/5.0 (Windows NT 10.0; Win64; x64) AppleWebKit/537.36 (KHTML, like Gecko) Chrome/111.0.0.0 Safari/537.36" etag="3iNfo32Z0MVvNitB7Pwu" version="21.1.2" type="github">
  <diagram id="C5RBs43oDa-KdzZeNtuy" name="Page-1">
    <mxGraphModel dx="845" dy="505" grid="1" gridSize="10" guides="1" tooltips="1" connect="1" arrows="1" fold="1" page="1" pageScale="1" pageWidth="827" pageHeight="1169" math="0" shadow="0">
      <root>
        <mxCell id="WIyWlLk6GJQsqaUBKTNV-0" />
        <mxCell id="WIyWlLk6GJQsqaUBKTNV-1" parent="WIyWlLk6GJQsqaUBKTNV-0" />
        <mxCell id="MmHB5nOc7DFme64wkI66-0" value="C[A[i]] += 1&amp;nbsp;" style="rounded=1;whiteSpace=wrap;html=1;absoluteArcSize=1;arcSize=14;strokeWidth=2;" vertex="1" parent="WIyWlLk6GJQsqaUBKTNV-1">
          <mxGeometry x="375" y="390" width="110" height="30" as="geometry" />
        </mxCell>
        <mxCell id="MmHB5nOc7DFme64wkI66-8" style="edgeStyle=orthogonalEdgeStyle;rounded=0;orthogonalLoop=1;jettySize=auto;html=1;exitX=0.5;exitY=1;exitDx=0;exitDy=0;entryX=0.5;entryY=0;entryDx=0;entryDy=0;" edge="1" parent="WIyWlLk6GJQsqaUBKTNV-1" source="MmHB5nOc7DFme64wkI66-1" target="MmHB5nOc7DFme64wkI66-5">
          <mxGeometry relative="1" as="geometry" />
        </mxCell>
        <mxCell id="MmHB5nOc7DFme64wkI66-1" value="// 初始化数组C[k] = {0..0}&lt;br&gt;vector&amp;lt;int&amp;gt; C(k, 0)" style="rounded=1;whiteSpace=wrap;html=1;absoluteArcSize=1;arcSize=14;strokeWidth=2;" vertex="1" parent="WIyWlLk6GJQsqaUBKTNV-1">
          <mxGeometry x="350" y="200" width="150" height="40" as="geometry" />
        </mxCell>
        <mxCell id="MmHB5nOc7DFme64wkI66-7" style="edgeStyle=orthogonalEdgeStyle;rounded=0;orthogonalLoop=1;jettySize=auto;html=1;exitX=0.5;exitY=1;exitDx=0;exitDy=0;exitPerimeter=0;entryX=0.5;entryY=0;entryDx=0;entryDy=0;" edge="1" parent="WIyWlLk6GJQsqaUBKTNV-1" source="MmHB5nOc7DFme64wkI66-2" target="MmHB5nOc7DFme64wkI66-1">
          <mxGeometry relative="1" as="geometry" />
        </mxCell>
        <mxCell id="MmHB5nOc7DFme64wkI66-2" value="开始" style="strokeWidth=2;html=1;shape=mxgraph.flowchart.start_1;whiteSpace=wrap;" vertex="1" parent="WIyWlLk6GJQsqaUBKTNV-1">
          <mxGeometry x="360" y="100" width="130" height="70" as="geometry" />
        </mxCell>
        <mxCell id="MmHB5nOc7DFme64wkI66-3" value="" style="verticalLabelPosition=bottom;verticalAlign=top;html=1;shape=mxgraph.flowchart.or;" vertex="1" parent="WIyWlLk6GJQsqaUBKTNV-1">
          <mxGeometry x="660" y="390" width="70" height="70" as="geometry" />
        </mxCell>
        <mxCell id="MmHB5nOc7DFme64wkI66-4" value="countSort(A, B, k)" style="text;html=1;align=center;verticalAlign=middle;resizable=0;points=[];autosize=1;strokeColor=none;fillColor=none;" vertex="1" parent="WIyWlLk6GJQsqaUBKTNV-1">
          <mxGeometry x="360" y="45" width="120" height="30" as="geometry" />
        </mxCell>
        <mxCell id="MmHB5nOc7DFme64wkI66-9" style="edgeStyle=orthogonalEdgeStyle;rounded=0;orthogonalLoop=1;jettySize=auto;html=1;exitX=0.5;exitY=1;exitDx=0;exitDy=0;entryX=0.5;entryY=0;entryDx=0;entryDy=0;entryPerimeter=0;" edge="1" parent="WIyWlLk6GJQsqaUBKTNV-1" source="MmHB5nOc7DFme64wkI66-5" target="MmHB5nOc7DFme64wkI66-6">
          <mxGeometry relative="1" as="geometry" />
        </mxCell>
        <mxCell id="MmHB5nOc7DFme64wkI66-5" value="i = 0" style="rounded=1;whiteSpace=wrap;html=1;absoluteArcSize=1;arcSize=14;strokeWidth=2;" vertex="1" parent="WIyWlLk6GJQsqaUBKTNV-1">
          <mxGeometry x="380" y="270" width="90" height="30" as="geometry" />
        </mxCell>
        <mxCell id="MmHB5nOc7DFme64wkI66-10" style="edgeStyle=orthogonalEdgeStyle;rounded=0;orthogonalLoop=1;jettySize=auto;html=1;exitX=0.5;exitY=1;exitDx=0;exitDy=0;exitPerimeter=0;" edge="1" parent="WIyWlLk6GJQsqaUBKTNV-1" source="MmHB5nOc7DFme64wkI66-6">
          <mxGeometry relative="1" as="geometry">
            <mxPoint x="426" y="390" as="targetPoint" />
          </mxGeometry>
        </mxCell>
        <mxCell id="MmHB5nOc7DFme64wkI66-15" style="edgeStyle=orthogonalEdgeStyle;rounded=0;orthogonalLoop=1;jettySize=auto;html=1;exitX=1;exitY=0.5;exitDx=0;exitDy=0;exitPerimeter=0;entryX=1;entryY=0.5;entryDx=0;entryDy=0;" edge="1" parent="WIyWlLk6GJQsqaUBKTNV-1" source="MmHB5nOc7DFme64wkI66-6" target="MmHB5nOc7DFme64wkI66-14">
          <mxGeometry relative="1" as="geometry" />
        </mxCell>
        <mxCell id="MmHB5nOc7DFme64wkI66-6" value="i &amp;lt; A.size()" style="strokeWidth=2;html=1;shape=mxgraph.flowchart.decision;whiteSpace=wrap;" vertex="1" parent="WIyWlLk6GJQsqaUBKTNV-1">
          <mxGeometry x="375" y="320" width="100" height="40" as="geometry" />
        </mxCell>
        <mxCell id="MmHB5nOc7DFme64wkI66-11" value="Y" style="text;html=1;align=center;verticalAlign=middle;resizable=0;points=[];autosize=1;strokeColor=none;fillColor=none;" vertex="1" parent="WIyWlLk6GJQsqaUBKTNV-1">
          <mxGeometry x="430" y="350" width="30" height="30" as="geometry" />
        </mxCell>
        <mxCell id="MmHB5nOc7DFme64wkI66-12" value="C[j] += C[j-1]" style="rounded=1;whiteSpace=wrap;html=1;absoluteArcSize=1;arcSize=14;strokeWidth=2;" vertex="1" parent="WIyWlLk6GJQsqaUBKTNV-1">
          <mxGeometry x="375" y="585" width="105" height="30" as="geometry" />
        </mxCell>
        <mxCell id="MmHB5nOc7DFme64wkI66-13" value="j &amp;lt; k" style="strokeWidth=2;html=1;shape=mxgraph.flowchart.decision;whiteSpace=wrap;" vertex="1" parent="WIyWlLk6GJQsqaUBKTNV-1">
          <mxGeometry x="375" y="510" width="100" height="40" as="geometry" />
        </mxCell>
        <mxCell id="MmHB5nOc7DFme64wkI66-14" value="j = 0" style="rounded=1;whiteSpace=wrap;html=1;absoluteArcSize=1;arcSize=14;strokeWidth=2;" vertex="1" parent="WIyWlLk6GJQsqaUBKTNV-1">
          <mxGeometry x="377.5" y="460" width="90" height="30" as="geometry" />
        </mxCell>
        <mxCell id="MmHB5nOc7DFme64wkI66-16" value="N" style="text;html=1;align=center;verticalAlign=middle;resizable=0;points=[];autosize=1;strokeColor=none;fillColor=none;" vertex="1" parent="WIyWlLk6GJQsqaUBKTNV-1">
          <mxGeometry x="465" y="315" width="30" height="30" as="geometry" />
        </mxCell>
        <mxCell id="MmHB5nOc7DFme64wkI66-17" value="&lt;div&gt;B[C[A[l]]-1] = A[l]&lt;/div&gt;&lt;div&gt;C[A[l]]--&lt;/div&gt;" style="rounded=1;whiteSpace=wrap;html=1;absoluteArcSize=1;arcSize=14;strokeWidth=2;" vertex="1" parent="WIyWlLk6GJQsqaUBKTNV-1">
          <mxGeometry x="360" y="790" width="150" height="50" as="geometry" />
        </mxCell>
        <mxCell id="MmHB5nOc7DFme64wkI66-18" value="l &amp;gt;= 0" style="strokeWidth=2;html=1;shape=mxgraph.flowchart.decision;whiteSpace=wrap;" vertex="1" parent="WIyWlLk6GJQsqaUBKTNV-1">
          <mxGeometry x="380" y="710" width="100" height="40" as="geometry" />
        </mxCell>
        <mxCell id="MmHB5nOc7DFme64wkI66-19" value="l = A.size()-1" style="rounded=1;whiteSpace=wrap;html=1;absoluteArcSize=1;arcSize=14;strokeWidth=2;" vertex="1" parent="WIyWlLk6GJQsqaUBKTNV-1">
          <mxGeometry x="382.5" y="660" width="90" height="30" as="geometry" />
        </mxCell>
      </root>
    </mxGraphModel>
  </diagram>
</mxfile>
